<?xml version="1.0" encoding="utf-8"?>
<!-- Generator: Adobe Illustrator 26.0.0, SVG Export Plug-In . SVG Version: 6.00 Build 0)  -->
<svg version="1.1" id="Layer_1" xmlns="http://www.w3.org/2000/svg" xmlns:xlink="http://www.w3.org/1999/xlink" x="0px" y="0px"
	 viewBox="0 0 102 102" style="enable-background:new 0 0 102 102;" xml:space="preserve">
<style type="text/css">
	.st0{fill:#ED1B24;}
	.st1{fill:#FFFFFF;}
	.st2{fill:#EE2864;}
	.st3{fill:#E32764;}
</style>
<g>
	<path class="st0" d="M2.4,50.7C2.4,23.5,24,2.2,51.4,2.4c26.8,0.1,48.3,21.9,48.3,48.8c-0.1,26.9-22.1,48.6-49.2,48.5
		C23.7,99.5,2.3,77.7,2.4,50.7z M43.2,54.6c0.6-0.3,1.2-0.5,1.6-0.8c4.4-3.8,5.7-8.4,3.9-13.5c-1.6-4.6-5.4-7.1-11.1-7.2
		c-4.1-0.1-8.1,0-12.2-0.1c-2.3-0.1-3.2,0.8-3.2,3.2c0.1,9.8,0.1,19.6,0,29.4c0,2.6,1,3.4,3.5,3.3c7.7-0.1,15.4,0,23.1-0.1
		c1.1,0,2.2-0.7,3.3-1c-0.5-1.1-0.7-2.3-1.4-3.3C48.4,61.3,46,58.3,43.2,54.6z M78.8,48.9c0.3-0.7,0.6-1.3,0.8-2
		c2.4-8-1.5-13.7-9.9-13.9c-3.8-0.1-7.5,0-11.3,0c-2.3-0.1-3.2,0.9-3.2,3.2c0.1,9.8,0.1,19.6,0,29.3c0,2.7,1.2,3.4,3.6,3.3
		c3.9-0.1,7.8,0,11.7-0.1c4.9-0.1,9.7-1.2,11.8-6.3C84.3,57.4,83.4,52.6,78.8,48.9z"/>
	<path class="st1" d="M43.2,54.6c2.8,3.7,5.2,6.7,7.4,9.9c0.7,0.9,1,2.2,1.4,3.3c-1.1,0.4-2.2,1-3.3,1c-7.7,0.1-15.4,0-23.1,0.1
		c-2.5,0-3.5-0.7-3.5-3.3c0.1-9.8,0.1-19.6,0-29.4c0-2.3,0.8-3.3,3.2-3.2c4.1,0.1,8.1,0,12.2,0.1c5.8,0.2,9.5,2.7,11.1,7.2
		c1.8,5.1,0.5,9.7-3.9,13.5C44.4,54.1,43.8,54.3,43.2,54.6z"/>
	<path class="st1" d="M78.8,48.9c4.7,3.7,5.6,8.5,3.5,13.6c-2.1,5.1-6.8,6.2-11.8,6.3c-3.9,0.1-7.8,0-11.7,0.1
		c-2.4,0.1-3.6-0.7-3.6-3.3c0.1-9.8,0.1-19.6,0-29.3c0-2.3,0.9-3.3,3.2-3.2c3.8,0.1,7.5-0.1,11.3,0C78,33.3,82,38.9,79.5,47
		C79.4,47.6,79.1,48.2,78.8,48.9z"/>
</g>
</svg>
