<?xml version="1.0" encoding="utf-8"?>
<!-- Generator: Adobe Illustrator 26.0.0, SVG Export Plug-In . SVG Version: 6.00 Build 0)  -->
<svg version="1.1" id="Layer_1" xmlns="http://www.w3.org/2000/svg" xmlns:xlink="http://www.w3.org/1999/xlink" x="0px" y="0px"
	 viewBox="0 0 102 102" style="enable-background:new 0 0 102 102;" xml:space="preserve">
<style type="text/css">
	.st0{fill:#ED1B24;}
	.st1{fill:#FFFFFF;}
	.st2{fill:#EE2864;}
	.st3{fill:#E32764;}
</style>
<g>
	<path class="st1" d="M66.2,42.9c0,10.2,0,20.1,0,30.7c-5.9,0-12,0.1-18.1,0c-3.3-0.1-6.6-0.8-9.9-0.9c-2.2,0-2.7-1-2.6-2.8
		c0.2-5.1,0.4-10.1,0.6-15.2c0.1-3,0.3-6,0.6-9c0.2-2-0.5-2.8-2.6-2.8c-3.5,0-7.4-4.4-7-7.9c0.1-0.5,0.7-1.2,1.2-1.4
		c5.6-1.9,11.2-3.7,16.9-5.4c0.8-0.2,1.9,0.1,2.6,0.6c2.2,1.4,4.4,1.1,6.7,0.4c1.3-0.4,2.8-0.8,4-0.4c5.1,1.6,10,3.6,15,5.4
		c1.6,0.6,2.1,1.6,1.1,3.2c-0.3,0.5-0.6,1-0.7,1.6c-1,3-2.6,5-6.2,3.9C67.2,42.7,66.5,42.9,66.2,42.9z"/>
	<path class="st1" d="M11.3,75.3c2.8-0.2,5.3-0.4,7.7-0.6c0.1-0.2,0.2-0.4,0.3-0.6c-1.5-0.5-3-1.3-4.6-1.4c-2.6-0.1-5.1-0.1-6.4-3.5
		c2.3,0,4.2,0,6.4,0c-0.6-1.8-1.5-2.7-3.6-2.7c-2.4,0-4.6-0.8-5.4-4.5c2.6,0.5,4.7,1,6.7,1.4c1.5-1.3,3.1-2.6,4.6-3.9
		c0.3,0.2,0.7,0.4,1,0.6c-0.7,1.5-1,3.3-2,4.5c-1.4,1.7-1.7,3.1-0.2,4.8c1-1.6,1.9-3.2,3.2-5.3c1.7,2.9,0.4,4.6-0.5,6.5
		c-0.4,0.7-0.1,1.8-0.1,2.6c0.3,0,0.6,0,0.9,0c0.7-1.2,1.4-2.4,2.2-3.8c1.3,2.3,1,6.6-0.5,7.7C18.7,79,13.7,78.3,11.3,75.3z"/>
	<path class="st1" d="M87.9,69.1c1.9,0,3.7,0,5.7,0c-1.2,3.4-4,4.4-8,3.1c-2.4-0.8-3.8-4.6-2.5-8c0.7,0.9,1.3,1.6,1.7,2.4
		c0.4,0.7,0.6,1.5,1.1,2.9c0.6-1.4,1-2.2,1.4-3.1c-3.2-4.1-3.3-4.5-2.1-7.1c1.5,1.4,2.9,3.6,4.7,4.1c1.7,0.5,3.9-0.7,6.5-1.3
		c-1.3,3.9-3.7,4.4-6.2,4.5C88.6,66.6,87.5,66.9,87.9,69.1z"/>
	<path class="st1" d="M27.5,90.1c1.5-0.8,3-1.7,4.7-2.2c1.7-0.6,2.6-1,1.6-3c-0.5-1.1-0.3-2.5-0.5-4.3c3.6,1.7,2.7,4.6,3.1,7
		c1.3-0.1,1.3-0.1,2.3-4.8c1.1,1,2.5,1.8,2.6,2.6c0.4,3.9,2.6,5.3,6.5,4.7c-0.1,0.3-0.3,0.6-0.4,0.9c-1.7-0.3-3.5-0.6-5.4-0.9
		c-2,2.1-3.6,5.4-8,3.2c2-1.6,3.9-3.2,5.9-4.8c0-0.2,0-0.4-0.1-0.6c-1.8,0.6-3.8,0.8-5.3,1.9C32.3,91.4,30.4,92.5,27.5,90.1z"/>
	<path class="st1" d="M91,56.8c-0.1-4.1-5.9-3.8-4.7-8.6c1.5,1,2.7,1.8,4.1,2.8c0.8-1.8,0.7-2.8-1.4-3.7c-1.6-0.7-2.9-2.1-4.3-3.2
		c0.3-0.4,0.6-0.9,0.8-1.3c1.7,0.8,3.4,1.7,4.8,2.4c2-1.4,4-2.9,6.4-4.6c0.7,3.1-0.4,5-2.2,5.8c-2.5,1-2.8,2.7-3,4.9
		c1.9-1.1,3.7-2.2,5.8-3.5C98.6,53.5,92,52.5,91,56.8z"/>
	<path class="st1" d="M70,15.7c-3.2-2.6-8.7-0.4-10.7-5.5c5.1-2.3,7.1,3.3,10.9,4.3c0-2.2,0-4.5,0-6.9c2.8,1.6,4.1,6.8,2.6,9.2
		c-1.2,1.9-5,2.6-7.9,1.1C66.9,17.1,68.3,16.5,70,15.7z"/>
	<path class="st1" d="M64.2,83.4c-0.5,1.9-1,3.8-1.5,5.5c1.8,1.5,3.6,2.9,5.6,4.5c-2.6,1.9-4.3,1.1-5.5-0.5
		c-1.9-2.7-4.1-3.2-6.9-1.9c-0.5,0.2-1.1,0.1-1.8-0.4c0.8-0.2,1.6-0.3,2.5-0.5c2.1-0.5,4.1-0.8,4.1-3.9c0-1.2,1.6-2.4,2.4-3.6
		C63.4,83,63.8,83.2,64.2,83.4z"/>
	<path class="st1" d="M12.3,61.6c-3-1.6-6.9-1.5-7.6-6.3c2.2,0.8,4.3,1.5,6.5,2.3c1.4-1.1,3.2-2.3,5.1-3.7
		C17.2,57.8,13.7,58.9,12.3,61.6z"/>
	<path class="st1" d="M16.5,81.5c1.7-0.4,3.4-1,5.1-1c1.8,0,2.1-0.8,2.2-2.2c0.1-1.4,0.4-2.9,0.6-4.3c0.4,0,0.9,0,1.3,0
		c0.3,1.5,0.6,3,0.8,4.5c0.2,1.5,0.3,3,0.4,4c-1.3,0.2-3,0.4-4.5,0.9c-2.2,0.7-4.1,0.7-5.8-0.7C16.5,82.2,16.5,81.8,16.5,81.5z"/>
	<path class="st1" d="M28.6,77.1c2.6,2.7,3.2,6.4,1.7,8.3c-2.3,2.8-5.4,3.4-9.3,1.2c2.7-1.1,4.8-2,7.2-3.1
		C28.3,82,28.4,79.8,28.6,77.1z"/>
	<path class="st1" d="M89.7,61.5c-1.5-2.1-3.1-4.3-4.6-6.5c0.4-0.4,0.8-0.7,1.2-1.1c1.3,1.2,2.7,2.4,4.1,3.7c2-0.8,4.3-1.6,6.7-2.6
		C97.2,57.7,97.2,57.7,89.7,61.5z"/>
	<path class="st1" d="M32.5,20.9c-3.5,2.7-6,0.2-8.6,0.1c-0.1-8.5-0.1-8.5,1.9-10.3c0,3.2,0,5.7,0,8.1C28,19.5,30,20.1,32.5,20.9z"
		/>
	<path class="st1" d="M16.3,31.6c0.1,0.4,0.3,1.1,0.4,1.1c1.2,0,2.4-0.2,3.8-0.3c-1.1,2.8-4.1,4.2-6.7,3.4c-2.5-0.8-4.7-5.2-4-8.3
		c3,0.7,3.4,3.3,4.1,5.6C14.8,32.6,15.5,32.1,16.3,31.6L16.3,31.6z"/>
	<path class="st1" d="M94.6,33.5c2,5.4-2.6,6.5-4.6,9.2c-2.2-1.3-4.3-2.6-6.5-3.9c0.2-0.4,0.4-0.9,0.6-1.3c1.8,0.5,3.7,1.1,5.4,1.6
		C91,37.4,92.6,35.6,94.6,33.5z"/>
	<path class="st1" d="M16.5,42.6c0.5,3-1.4,3.7-3.1,4.6c-0.9,0.5-1.7,1.3-2.6,2c-0.9-0.7-2.3-1.8-3.5-3.1c-1.1-1.3-1.9-3-2.8-4.5
		c0.4-0.3,0.8-0.6,1.2-1c1.9,1.5,3.7,2.9,5.8,4.6C12.9,44.5,14.5,43.7,16.5,42.6z"/>
	<path class="st1" d="M27.8,17.4c0.3-1,0.9-2.2,0.9-3.4c0.1-2.4,0.1-4.6,3.1-6.5c0,2.3,0.5,4.3-0.1,5.9c-0.7,2.1,0,2.6,1.7,3.1
		c1.1,0.3,2.1,0.8,3.6,1.3c-2,2.2-3.6,1.2-5.2,0.7C30.4,17.9,28.9,17.7,27.8,17.4z"/>
	<path class="st1" d="M69.5,20.9c2.1-0.6,3.4-1.1,4.7-1.4c1.3-0.3,1.9-0.6,1.7-2.3c-0.3-1.9,0.2-3.9,0.4-6.1
		c3.1,1.9,3.7,5.6,1.7,8.9C76.7,22.2,73.1,22.9,69.5,20.9z"/>
	<path class="st1" d="M81.8,15.9c2.7,2.6,2.5,6.7,0.4,8.9c-1.5,1.6-5.3,1.6-8.6-0.7c2.6-0.4,4.4-0.7,6.5-1.1
		C80.6,21,81.2,18.4,81.8,15.9z"/>
	<path class="st1" d="M16.3,31.6c-0.7-1.5-1.3-3-2-4.5c-1-2-1.2-3.9,1-6.1c0.6,1.6,1.5,3.2,1.7,4.8c0.3,1.9,0.7,2.6,2.7,2
		c1.1-0.3,2.4-0.1,3.9-0.1c-0.9,2.8-2.9,2.6-4.7,2.8C18,30.7,17.2,31.2,16.3,31.6C16.3,31.6,16.3,31.6,16.3,31.6z"/>
	<path class="st1" d="M12.2,39.1c2-0.6,3.8-1.2,5.9-1.9c0.1,4.8-5.9,2.6-6,6.2c-1.1-1.2-2.1-2.4-3.1-3.5c-1.5-1.7-3.4-3.3-1.3-6.5
		C9.3,35.5,10.8,37.3,12.2,39.1z"/>
	<path class="st1" d="M77.9,79.6c3.1,0.7,5.4,1.3,8.3,1.9c-2.9,2.4-8.3,2-9.9,0c-1.3-1.7-0.7-6,1.6-8C77.9,76,77.9,77.9,77.9,79.6z"
		/>
	<path class="st1" d="M74.1,77.2c-0.2,1.8-0.2,3.2-0.5,4.5c-0.4,1.7,0,2.4,1.9,2.6c1.7,0.2,3.4,1.1,5.5,1.9
		c-3.1,2.6-7.1,1.8-9.2-1.1C70.2,83.1,71.2,79.2,74.1,77.2z"/>
	<path class="st1" d="M78.3,28.1c2,0,3.8,0,5.6,0c1-2.4,2.1-4.7,3.3-7.5c2.2,3,1.3,7.2-1.3,9C83.4,31.3,80.1,30.8,78.3,28.1z"/>
	<path class="st1" d="M87.6,33c1.3-1.8,2.6-3.8,4.3-6.2c1.2,4-0.3,7.4-3.3,8.6c-3,1.2-5.5,0.3-7.3-3C83.5,32.6,85.4,32.8,87.6,33z"
		/>
	<path class="st1" d="M11.1,51.6c1.7-1.3,3.1-2.3,4.6-3.4c0.4,3.3-2.7,6.6-5.4,5.8c-2-0.6-3.8-2.1-5.5-3.5c-0.4-0.3-0.2-1.5-0.2-2.3
		c0.7,0.1,1.5,0,2.1,0.4C8.2,49.5,9.7,50.7,11.1,51.6z"/>
	<path class="st1" d="M69.4,80.6c-0.5,1.8-0.6,3.2-1.1,4.4c-0.6,1.5-0.1,2,1.3,2.6c1.7,0.7,3.4,1.6,5.3,2.6C73,92.3,71.2,92,69.8,91
		c-1.5-1-3.7-2.4-3.7-3.7C66,85.1,64.9,81.8,69.4,80.6z"/>
	<path class="st1" d="M27.5,23.9c-1.6,2-6.6,2.2-7.7,1.3c-1.8-1.5-2-6.7-0.4-9.3c2.8,1.9,1.8,4.8,1.9,7.3
		C23.5,23.4,25.5,23.7,27.5,23.9z"/>
	<path class="st1" d="M80.6,69.1c0.7,1.4,1.2,2.3,1.5,3.2c0.3,1,0.4,2,0.6,3c2.6,0,5,0,7.7,0c-1.8,3.2-5.1,3.8-8.6,2
		C79.9,76.3,79,72.2,80.6,69.1z"/>
	<path class="st1" d="M34.2,13.9c2.2-2.9,4.6-4.7,8.5-3.7C40.7,13.7,38.6,14.6,34.2,13.9z"/>
	<path class="st1" d="M56.6,94.5c-2.7-0.7-5.5-1.5-7.9-2.1C50.5,90.4,52.7,90.8,56.6,94.5z"/>
</g>
</svg>
