<svg width="70" height="70" viewBox="0 0 70 70" fill="none" xmlns="http://www.w3.org/2000/svg">
<path d="M48.4166 16.975C46.4229 14.6989 45.3241 11.7758 45.325 8.75H36.3125V44.9167C36.243 46.8738 35.4167 48.7276 34.0076 50.0877C32.5986 51.4478 30.7167 52.2081 28.7583 52.2083C24.6166 52.2083 21.175 48.825 21.175 44.625C21.175 39.6083 26.0166 35.8458 31.0041 37.3917V28.175C20.9416 26.8333 12.1333 34.65 12.1333 44.625C12.1333 54.3375 20.1833 61.25 28.7291 61.25C37.8875 61.25 45.325 53.8125 45.325 44.625V26.2792C48.9795 28.9037 53.3673 30.3119 57.8666 30.3042V21.2917C57.8666 21.2917 52.3833 21.5542 48.4166 16.975Z" fill="white"/>
</svg>
