<svg width="54" height="54" viewBox="0 0 54 54" fill="none" xmlns="http://www.w3.org/2000/svg">
<rect width="54" height="54" rx="4" fill="#FFD952"/>
<path d="M44 16.375L41.875 24.875H37.625V41.875H16.375V24.875H12.125L10 16.375L22.75 12.125C22.75 12.7116 22.8607 13.2594 23.082 13.7686C23.3034 14.2777 23.6077 14.7314 23.9951 15.1299C24.3825 15.5283 24.8307 15.8327 25.3398 16.043C25.849 16.2533 26.4023 16.3639 27 16.375C27.5866 16.375 28.1344 16.2643 28.6436 16.043C29.1527 15.8216 29.6064 15.5173 30.0049 15.1299C30.4033 14.7425 30.7077 14.2943 30.918 13.7852C31.1283 13.276 31.2389 12.7227 31.25 12.125L44 16.375ZM41.46 17.7695L32.7607 14.8643C32.4951 15.4176 32.1631 15.9157 31.7646 16.3584C31.3662 16.8011 30.9124 17.1829 30.4033 17.5039C29.8942 17.8249 29.3574 18.0684 28.793 18.2344C28.2285 18.4004 27.6309 18.4889 27 18.5C26.3802 18.5 25.7826 18.417 25.207 18.251C24.6315 18.085 24.0947 17.8415 23.5967 17.5205C23.0986 17.1995 22.6504 16.8177 22.252 16.375C21.8535 15.9323 21.516 15.4287 21.2393 14.8643L12.54 17.7695L13.7852 22.75H18.5V39.75H35.5V22.75H40.2148L41.46 17.7695Z" fill="white"/>
</svg>
