<svg width="54" height="54" viewBox="0 0 54 54" fill="none" xmlns="http://www.w3.org/2000/svg">
<rect width="54" height="54" rx="4" fill="#52B6FF"/>
<path d="M27.5 27.8438C29.205 27.8438 30.5938 26.455 30.5938 24.75C30.5938 23.045 29.205 21.6562 27.5 21.6562C25.795 21.6562 24.4062 23.045 24.4062 24.75C24.4062 26.455 25.795 27.8438 27.5 27.8438ZM33.6875 33.3438C33.6875 31.2812 29.5625 30.25 27.5 30.25C25.4375 30.25 21.3125 31.2812 21.3125 33.3438V34.375H33.6875V33.3438ZM37.125 15.125H17.875C16.3625 15.125 15.125 16.3625 15.125 17.875V37.125C15.125 38.6375 16.3625 39.875 17.875 39.875H37.125C38.6375 39.875 39.875 38.6375 39.875 37.125V17.875C39.875 16.3625 38.6375 15.125 37.125 15.125ZM37.125 37.125H17.875V17.875H37.125V37.125Z" fill="white"/>
</svg>
