<svg width="54" height="54" viewBox="0 0 54 54" fill="none" xmlns="http://www.w3.org/2000/svg">
<rect width="54" height="54" rx="4" fill="#FF527B"/>
<path d="M17.0833 39.75C16.3042 39.75 15.6369 39.4723 15.0816 38.917C14.5263 38.3617 14.2491 37.6949 14.25 36.9167V17.0833C14.25 16.3042 14.5277 15.6369 15.083 15.0816C15.6383 14.5263 16.3051 14.2491 17.0833 14.25H36.9167C37.6958 14.25 38.3631 14.5277 38.9184 15.083C39.4738 15.6383 39.7509 16.3051 39.75 17.0833V36.9167C39.75 37.6958 39.4723 38.3631 38.917 38.9184C38.3617 39.4738 37.6949 39.7509 36.9167 39.75H17.0833ZM17.0833 36.9167H36.9167V17.0833H17.0833V36.9167ZM18.5 34.0833H35.5L30.1875 27L25.9375 32.6667L22.75 28.4167L18.5 34.0833Z" fill="white"/>
</svg>
