<svg width="70" height="70" viewBox="0 0 70 70" fill="none" xmlns="http://www.w3.org/2000/svg">
<path d="M22.75 5.83301H47.25C56.5833 5.83301 64.1666 13.4163 64.1666 22.7497V47.2497C64.1666 51.7362 62.3843 56.039 59.2118 59.2115C56.0394 62.384 51.7365 64.1663 47.25 64.1663H22.75C13.4166 64.1663 5.83331 56.583 5.83331 47.2497V22.7497C5.83331 18.2631 7.6156 13.9603 10.7881 10.7878C13.9606 7.61529 18.2634 5.83301 22.75 5.83301ZM22.1666 11.6663C19.3819 11.6663 16.7112 12.7726 14.742 14.7417C12.7729 16.7108 11.6666 19.3816 11.6666 22.1663V47.833C11.6666 53.6371 16.3625 58.333 22.1666 58.333H47.8333C50.6181 58.333 53.2888 57.2267 55.2579 55.2576C57.227 53.2885 58.3333 50.6178 58.3333 47.833V22.1663C58.3333 16.3622 53.6375 11.6663 47.8333 11.6663H22.1666ZM50.3125 16.0413C51.2794 16.0413 52.2067 16.4254 52.8904 17.1092C53.5742 17.7929 53.9583 18.7202 53.9583 19.6872C53.9583 20.6541 53.5742 21.5814 52.8904 22.2652C52.2067 22.9489 51.2794 23.333 50.3125 23.333C49.3455 23.333 48.4182 22.9489 47.7345 22.2652C47.0507 21.5814 46.6666 20.6541 46.6666 19.6872C46.6666 18.7202 47.0507 17.7929 47.7345 17.1092C48.4182 16.4254 49.3455 16.0413 50.3125 16.0413ZM35 20.4163C38.8677 20.4163 42.577 21.9528 45.3119 24.6877C48.0468 27.4226 49.5833 31.1319 49.5833 34.9997C49.5833 38.8674 48.0468 42.5767 45.3119 45.3116C42.577 48.0465 38.8677 49.583 35 49.583C31.1322 49.583 27.4229 48.0465 24.688 45.3116C21.9531 42.5767 20.4166 38.8674 20.4166 34.9997C20.4166 31.1319 21.9531 27.4226 24.688 24.6877C27.4229 21.9528 31.1322 20.4163 35 20.4163ZM35 26.2497C32.6793 26.2497 30.4537 27.1715 28.8128 28.8125C27.1718 30.4534 26.25 32.679 26.25 34.9997C26.25 37.3203 27.1718 39.5459 28.8128 41.1868C30.4537 42.8278 32.6793 43.7497 35 43.7497C37.3206 43.7497 39.5462 42.8278 41.1871 41.1868C42.8281 39.5459 43.75 37.3203 43.75 34.9997C43.75 32.679 42.8281 30.4534 41.1871 28.8125C39.5462 27.1715 37.3206 26.2497 35 26.2497Z" fill="white"/>
</svg>
