<?xml version="1.0" encoding="utf-8"?>
<!-- Generator: Adobe Illustrator 26.0.0, SVG Export Plug-In . SVG Version: 6.00 Build 0)  -->
<svg version="1.1" id="Layer_1" xmlns="http://www.w3.org/2000/svg" xmlns:xlink="http://www.w3.org/1999/xlink" x="0px" y="0px"
	 viewBox="0 0 102 102" style="enable-background:new 0 0 102 102;" xml:space="preserve">
<style type="text/css">
	.st0{fill:#ED1B24;}
	.st1{fill:#FFFFFF;}
	.st2{fill:#EE2864;}
	.st3{fill:#E32764;}
</style>
<path class="st3" d="M51.4,66.7c1.9-0.3,3.8-0.4,5.7-0.8c7.4-1.9,7.9-3.4,3.3-9c-3.4-4.2-5.3-9-5.5-14.4c-0.4-7.1,4.2-12.7,11-13.5
	c6.4-0.8,12.2,3.7,13.5,10.5c1,5.4,0.8,10.8-1.6,15.8c-1.9,4-0.1,4.4,3.2,4.2c5.6-0.3,10.2-2.7,13.4-7.1c1.9-2.7,3.7-2.7,6-1
	c2.8,2.2,0.1,3.8-1,5.2c-6.1,7.5-14.1,10.7-23.7,9.1c-2.8-0.5-4.9,0-7.2,1.7c-10.7,7.9-23.8,7.9-34.5-0.1c-2.4-1.8-4.5-2-7.2-1.5
	C16.4,67.1,8.2,63.4,2.1,55.1c-1-1.4-3-3.1-0.3-4.8c2.1-1.4,3.8-1.8,5.6,1c3.4,5.3,8.6,8,15,8.1c2.8,0.1,3.9-0.7,2.6-3.7
	c-2.5-5.7-3.2-11.7-1.4-17.8c1.8-6.1,7.6-9.9,13.5-9c6.2,0.9,10.6,6,10.6,12.3c0,7.1-2.7,13.3-8.1,18c-2.4,2.2-1.7,3.2,0.6,4.5
	C43.8,65.6,47.4,66.7,51.4,66.7z M41.4,42.1c0-3.5-1.5-6.1-5.2-6.7c-3.5-0.6-5.7,1.5-6.5,4.7c-1.4,5.3-0.5,10.3,2.2,15
	c0.5,0.9,1.5,1,2.3,0.4C38.6,52.2,40.7,47.5,41.4,42.1z M73.3,44.5c-0.1-1.1-0.1-2.3-0.3-3.5c-0.5-3.5-2.5-5.9-6.2-5.7
	c-3.9,0.3-5.6,3-5.5,6.9c0.1,2.5,0.6,4.8,1.8,7c1.5,2.7,3.2,6.8,6.2,6.3c3.5-0.6,3.3-5.1,3.8-8.3C73.3,46.4,73.2,45.5,73.3,44.5z"/>
</svg>
