<svg width="70" height="70" viewBox="0 0 70 70" fill="none" xmlns="http://www.w3.org/2000/svg">
<path d="M65.5084 17.5003C63.2625 18.5212 60.8417 19.192 58.3334 19.5128C60.9 17.967 62.8834 15.517 63.8167 12.5712C61.3959 14.0295 58.7125 15.0503 55.8834 15.6337C53.5792 13.1253 50.3417 11.667 46.6667 11.667C39.8125 11.667 34.2125 17.267 34.2125 24.1795C34.2125 25.1712 34.3292 26.1337 34.5334 27.0378C24.15 26.5128 14.9042 21.5253 8.75003 13.9712C7.67087 15.8087 7.05837 17.967 7.05837 20.242C7.05837 24.5878 9.24587 28.4378 12.6292 30.6253C10.5584 30.6253 8.63337 30.042 6.9417 29.167V29.2545C6.9417 35.3212 11.2584 40.3962 16.975 41.5337C15.1397 42.0359 13.2128 42.1058 11.3459 41.7378C12.1381 44.2242 13.6895 46.3998 15.7822 47.9589C17.8748 49.5179 20.4034 50.3819 23.0125 50.4295C18.5898 53.9308 13.1075 55.8233 7.4667 55.7962C6.47503 55.7962 5.48337 55.7378 4.4917 55.6212C10.0334 59.1795 16.625 61.2503 23.6834 61.2503C46.6667 61.2503 59.2959 42.1753 59.2959 25.6378C59.2959 25.0837 59.2959 24.5587 59.2667 24.0045C61.7167 22.2545 63.8167 20.0378 65.5084 17.5003Z" fill="white"/>
</svg>
