<svg width="41" height="41" viewBox="0 0 41 41" fill="none" xmlns="http://www.w3.org/2000/svg">
<path d="M32.5437 8.38834C30.9775 6.8063 29.112 5.55194 27.056 4.69843C24.9999 3.84492 22.7945 3.40934 20.5683 3.41709C11.2408 3.41709 3.63874 11.0192 3.63874 20.3467C3.63874 23.3363 4.42458 26.2404 5.89374 28.8029L3.50208 37.5838L12.4708 35.2263C14.9479 36.5758 17.7325 37.2933 20.5683 37.2933C29.8958 37.2933 37.4979 29.6913 37.4979 20.3638C37.4979 15.8367 35.7383 11.5829 32.5437 8.38834ZM20.5683 34.4233C18.04 34.4233 15.5629 33.74 13.3933 32.4588L12.8808 32.1513L7.55082 33.5521L8.96874 28.3588L8.62707 27.8292C7.22239 25.5861 6.47652 22.9933 6.47457 20.3467C6.47457 12.5908 12.7954 6.27001 20.5512 6.27001C24.3096 6.27001 27.8458 7.73918 30.4937 10.4042C31.8049 11.7093 32.8439 13.2616 33.5506 14.9713C34.2573 16.6809 34.6177 18.5138 34.6108 20.3638C34.645 28.1196 28.3242 34.4233 20.5683 34.4233ZM28.29 23.9C27.8629 23.695 25.7787 22.67 25.4029 22.5163C25.01 22.3796 24.7367 22.3113 24.4462 22.7213C24.1558 23.1483 23.3529 24.105 23.1137 24.3783C22.8746 24.6688 22.6183 24.7029 22.1912 24.4808C21.7642 24.2758 20.3975 23.8146 18.7917 22.3796C17.5275 21.2521 16.6904 19.8683 16.4342 19.4413C16.195 19.0142 16.4 18.7921 16.6221 18.57C16.81 18.3821 17.0492 18.0746 17.2542 17.8354C17.4592 17.5963 17.5446 17.4083 17.6812 17.135C17.8179 16.8446 17.7496 16.6054 17.6471 16.4004C17.5446 16.1954 16.6904 14.1113 16.3487 13.2571C16.0071 12.4371 15.6483 12.5396 15.3921 12.5225H14.5721C14.2817 12.5225 13.8375 12.625 13.4446 13.0521C13.0687 13.4792 11.9754 14.5042 11.9754 16.5883C11.9754 18.6725 13.4958 20.6883 13.7008 20.9617C13.9058 21.2521 16.6904 25.5229 20.9271 27.3508C21.935 27.795 22.7208 28.0513 23.3358 28.2392C24.3437 28.5638 25.2662 28.5125 26.0008 28.41C26.8208 28.2904 28.5121 27.385 28.8537 26.3942C29.2125 25.4033 29.2125 24.5663 29.0929 24.3783C28.9733 24.1904 28.7171 24.105 28.29 23.9Z" fill="#FEFEFE"/>
</svg>
