<svg width="70" height="70" viewBox="0 0 70 70" fill="none" xmlns="http://www.w3.org/2000/svg">
<path d="M29.1667 43.7497L44.3042 34.9997L29.1667 26.2497V43.7497ZM62.8834 20.9122C63.2625 22.283 63.525 24.1205 63.7 26.4538C63.9042 28.7872 63.9917 30.7997 63.9917 32.5497L64.1667 34.9997C64.1667 41.3872 63.7 46.083 62.8834 49.0872C62.1542 51.7122 60.4625 53.4038 57.8375 54.133C56.4667 54.5122 53.9584 54.7747 50.1084 54.9497C46.3167 55.1538 42.8459 55.2413 39.6375 55.2413L35 55.4163C22.7792 55.4163 15.1667 54.9497 12.1625 54.133C9.53754 53.4038 7.84587 51.7122 7.11671 49.0872C6.73754 47.7163 6.47504 45.8788 6.30004 43.5455C6.09587 41.2122 6.00837 39.1997 6.00837 37.4497L5.83337 34.9997C5.83337 28.6122 6.30004 23.9163 7.11671 20.9122C7.84587 18.2872 9.53754 16.5955 12.1625 15.8663C13.5334 15.4872 16.0417 15.2247 19.8917 15.0497C23.6834 14.8455 27.1542 14.758 30.3625 14.758L35 14.583C47.2209 14.583 54.8334 15.0497 57.8375 15.8663C60.4625 16.5955 62.1542 18.2872 62.8834 20.9122Z" fill="white"/>
</svg>
