<svg width="54" height="54" viewBox="0 0 54 54" fill="none" xmlns="http://www.w3.org/2000/svg">
<rect width="54" height="54" rx="4" fill="#E752FF"/>
<path d="M15.125 34.375C15.125 35.469 15.5596 36.5182 16.3332 37.2918C17.1068 38.0654 18.156 38.5 19.25 38.5C20.344 38.5 21.3932 38.0654 22.1668 37.2918C22.9404 36.5182 23.375 35.469 23.375 34.375C23.375 33.281 22.9404 32.2318 22.1668 31.4582C21.3932 30.6846 20.344 30.25 19.25 30.25C18.156 30.25 17.1068 30.6846 16.3332 31.4582C15.5596 32.2318 15.125 33.281 15.125 34.375ZM28.875 34.375C28.875 35.469 29.3096 36.5182 30.0832 37.2918C30.8568 38.0654 31.906 38.5 33 38.5C34.094 38.5 35.1432 38.0654 35.9168 37.2918C36.6904 36.5182 37.125 35.469 37.125 34.375C37.125 33.281 36.6904 32.2318 35.9168 31.4582C35.1432 30.6846 34.094 30.25 33 30.25C31.906 30.25 30.8568 30.6846 30.0832 31.4582C29.3096 32.2318 28.875 33.281 28.875 34.375Z" stroke="white" stroke-width="2" stroke-linecap="round" stroke-linejoin="round"/>
<path d="M23.375 34.375V16.5H37.125V34.375M23.375 22H37.125" stroke="white" stroke-width="2" stroke-linecap="round" stroke-linejoin="round"/>
</svg>
